<svg xmlns="http://www.w3.org/2000/svg" viewBox="0 0 100 100">
  <defs>
    <linearGradient id="bg" x1="0%" y1="0%" x2="0%" y2="100%">
      <stop offset="0%" style="stop-color:#A149F8;" />
      <stop offset="100%" style="stop-color:#7328CB;" />
    </linearGradient>
     <filter id="shadow" x="-20%" y="-20%" width="140%" height="140%">
      <feGaussianBlur in="SourceAlpha" stdDeviation="3"/>
      <feOffset dx="2" dy="2" result="offsetblur"/>
      <feComponentTransfer>
        <feFuncA type="linear" slope="0.5"/>
      </feComponentTransfer>
      <feMerge> 
        <feMergeNode/>
        <feMergeNode in="SourceGraphic"/> 
      </feMerge>
    </filter>
  </defs>
  <rect width="100" height="100" rx="20" fill="url(#bg)" />
  <g transform="translate(25, 25) scale(0.5)" style="filter:url(#shadow);">
    <path fill="#FFFFFF" d="M50,5 C74.85,5 95,25.15 95,50 C95,74.85 74.85,95 50,95 C25.15,95 5,74.85 5,50 C5,25.15 25.15,5 50,5 Z" />
    <path fill="#FFC700" d="M50,10 C72.09,10 90,27.91 90,50 C90,72.09 72.09,90 50,90 C27.91,90 10,72.09 10,50 C10,27.91 27.91,10 50,10 Z" />
    <path fill="#FFFFFF" opacity="0.5" d="M30,30 L70,70" stroke="#FFFFFF" stroke-width="10" stroke-linecap="round" />
     <path fill="#FFFFFF" opacity="0.5" d="M70,30 L30,70" stroke="#FFFFFF" stroke-width="10" stroke-linecap="round" />
  </g>
</svg>
